# Blender 4.0.2
# www.blender.org
mtllib Prop_WoodenFence_Single.mtl
o Prop_WoodenFence_Single
v -0.926451 0.797152 0.059910
v -1.031451 0.792887 0.059910
v -0.926451 0.797152 -0.059910
v -1.031451 0.792887 -0.059910
v -0.893646 -0.028253 0.059910
v -0.998646 -0.028253 0.059910
v -0.893646 -0.028253 -0.059910
v -0.998646 -0.028253 -0.059910
v 1.032649 0.806146 0.055159
v 1.032649 0.806829 -0.049925
v 0.912867 0.809173 0.055179
v 0.912867 0.809857 -0.049906
v 1.012230 -0.028253 0.049906
v 1.012230 -0.028253 -0.055179
v 0.892448 -0.028253 0.049925
v 0.892448 -0.028253 -0.055159
v -0.993108 0.726363 -0.005784
v -0.993108 0.577617 -0.013879
v 0.993108 0.726363 -0.005783
v 0.993108 0.577617 -0.013878
v 0.993108 0.723818 0.040979
v -0.993108 0.723818 0.040978
v -0.993108 0.575072 0.032882
v 0.993108 0.575072 0.032883
v 0.995887 0.401130 -0.010797
v 0.985418 0.549475 -0.019459
v -0.985418 0.261773 -0.002659
v -0.995887 0.410117 -0.011321
v -0.985418 0.264502 0.044092
v 0.995887 0.403860 0.035954
v 0.985418 0.552205 0.027292
v -0.995887 0.412847 0.035430
vn -0.0406 0.9992 -0.0000
vn -0.0000 -1.0000 -0.0000
vn -0.0000 -0.0000 -1.0000
vn -0.9992 -0.0399 -0.0000
vn 0.9992 0.0397 -0.0000
vn -0.0000 -0.0000 1.0000
vn 0.0253 0.9997 0.0065
vn -0.9997 0.0244 0.0001
vn -0.0001 0.0063 -1.0000
vn 0.0001 -0.0063 1.0000
vn 0.9997 -0.0245 -0.0001
vn -0.0000 0.0543 -0.9985
vn -0.0000 -0.0543 0.9985
vn -0.0000 0.9985 0.0543
vn -0.0000 -0.9985 -0.0543
vn -0.0000 -0.0583 -0.9983
vn -0.0000 0.0583 0.9983
vn 0.0703 -0.9958 0.0581
vn -0.0703 0.9958 -0.0581
vt 0.332501 0.213019
vt 0.490323 0.213019
vt 0.490323 0.373570
vt 0.332501 0.373570
vt 0.490323 0.213019
vt 0.332501 0.213019
vt 0.332501 0.373570
vt 0.490323 0.373570
vt 0.538759 0.882737
vt 0.000000 0.882737
vt 0.000000 0.996169
vt 0.538759 0.996169
vt 1.000000 0.867594
vt 1.000000 0.757548
vt 0.461241 0.757548
vt 0.461241 0.867594
vt 0.461241 0.867594
vt 0.461241 0.757548
vt 0.538759 0.996169
vt 0.000000 0.692703
vt 1.000000 0.692703
vt 1.000000 0.745718
vt 0.000000 0.745718
vt 0.000000 0.741805
vt 0.000000 0.693592
vt 1.000000 0.693592
vt 1.000000 0.741805
s 0
usemtl MI_WoodTrim
f 1/1/1 3/2/1 4/3/1 2/4/1
f 7/5/2 5/6/2 6/7/2 8/8/2
f 3/9/3 7/10/3 8/11/3 4/12/3
f 8/13/4 6/14/4 2/15/4 4/16/4
f 3/17/5 1/18/5 5/14/5 7/13/5
f 2/9/6 6/10/6 5/11/6 1/19/6
f 9/1/7 10/4/7 12/3/7 11/2/7
f 15/5/2 16/8/2 14/7/2 13/6/2
f 11/9/8 12/12/8 16/11/8 15/10/8
f 16/13/9 12/16/9 10/15/9 14/14/9
f 11/17/10 15/13/10 13/14/10 9/18/10
f 10/9/11 9/19/11 13/11/11 14/10/11
f 17/20/12 19/21/12 20/22/12 18/23/12
f 22/20/13 23/23/13 24/22/13 21/21/13
f 17/24/14 22/25/14 21/26/14 19/27/14
f 20/26/15 24/27/15 23/24/15 18/25/15
f 25/20/16 27/21/16 28/22/16 26/23/16
f 30/20/17 31/23/17 32/22/17 29/21/17
f 25/24/18 30/25/18 29/26/18 27/27/18
f 28/26/19 32/27/19 31/24/19 26/25/19
